<svg aria-hidden="true" style="position: absolute; width: 0; height: 0; overflow: hidden;"
  version="1.1"
  xmlns="http://www.w3.org/2000/svg" xmlns:xlink="http://www.w3.org/1999/xlink">
  <defs>
    <symbol id="icon-login" viewBox="0 0 32 32">
      <path stroke-linejoin="round" stroke-linecap="round" stroke-miterlimit="4" stroke-width="1.5"
        d="M11.867 10.080c0.413-4.8 2.88-6.76 8.28-6.76h0.173c5.96 0 8.347 2.387 8.347 8.347v8.693c0 5.96-2.387 8.347-8.347 8.347h-0.173c-5.36 0-7.827-1.933-8.267-6.653">
      </path>
      <path stroke-linejoin="round" stroke-linecap="round" stroke-miterlimit="4" stroke-width="1.5"
        d="M2.667 16h17.173"></path>
      <path stroke-linejoin="round" stroke-linecap="round" stroke-miterlimit="4" stroke-width="1.5"
        d="M16.867 11.533l4.467 4.467-4.467 4.467"></path>
    </symbol>
    <symbol id="icon-plus-big" viewBox="0 0 32 32">
      <path stroke-linejoin="round" stroke-linecap="round" stroke-miterlimit="4" stroke-width="3.2"
        d="M16 6.667v18.667"></path>
      <path stroke-linejoin="round" stroke-linecap="round" stroke-miterlimit="4" stroke-width="3.2"
        d="M6.667 16h18.667"></path>
    </symbol>
    <symbol id="icon-plus-small" viewBox="0 0 32 32">
      <path stroke-linejoin="round" stroke-linecap="round" stroke-miterlimit="4" stroke-width="2.88"
        d="M16 6.667v18.667"></path>
      <path stroke-linejoin="round" stroke-linecap="round" stroke-miterlimit="4" stroke-width="2.88"
        d="M6.666 16h18.667"></path>
    </symbol>
    <symbol id="icon-trash" viewBox="0 0 22 22">
      <path d="M4 6.17647L20 6.17647M16 21H8C6.89543 21 6 20.0519 6 18.8824V7.23529C6 6.65052 6.44772 6.17647 7 6.17647H17C17.5523 6.17647 18 6.65052 18 7.23529V18.8824C18 20.0519 17.1046 21 16 21ZM10 6.17647H14C14.5523 6.17647 15 5.70242 15 5.11765V4.05882C15 3.47405 14.5523 3 14 3H10C9.44772 3 9 3.47405 9 4.05882V5.11765C9 5.70242 9.44772 6.17647 10 6.17647Z" stroke-width="2" stroke-linecap="round"/>
    </symbol>
    <symbol id="icon-pencil" viewBox="0 0 24 24">
      <path d="M11.0984 3.80369H5.4119C3.52756 3.80369 2 5.3312 2 7.21548V18.5882C2 20.4725 3.52756 22 5.4119 22H16.7849C18.6692 22 20.1968 20.4725 20.1968 18.5882L20.1968 12.9018M7.68649 16.3136L11.8244 15.4799C12.044 15.4356 12.2457 15.3274 12.4041 15.1689L21.6671 5.90116C22.1112 5.45682 22.1109 4.73657 21.6664 4.2926L19.7042 2.33264C19.2599 1.88886 18.54 1.88916 18.0961 2.33332L8.8321 11.6021C8.674 11.7602 8.56605 11.9615 8.52175 12.1807L7.68649 16.3136Z" stroke-width="2" stroke-linecap="round" stroke-linejoin="round"/>
    </symbol>
    <symbol id="icon-arrow-circle-broken-right" viewBox="0 0 32 32">
      <path stroke-linejoin="round" stroke-linecap="round" stroke-miterlimit="4" stroke-width="2.6"
        d="M4.45 9.333c2.305-3.985 6.614-6.667 11.55-6.667 7.364 0 13.333 5.97 13.333 13.333s-5.97 13.333-13.333 13.333c-4.935 0-9.244-2.681-11.55-6.667">
      </path>
      <path stroke-linejoin="round" stroke-linecap="round" stroke-miterlimit="4" stroke-width="2.6"
        d="M16 21.333l5.333-5.333-5.333-5.333"></path>
      <path stroke-linejoin="round" stroke-linecap="round" stroke-miterlimit="4" stroke-width="2.6"
        d="M2.667 16h18.667"></path>
    </symbol>
    <symbol id="icon-alert" viewBox="0 0 22 22">
      <path d="M12 12V7.5M12 15.3354V15.375M21 12C21 16.9706 16.9706 21 12 21C7.02944 21 3 16.9706 3 12C3 7.02944 7.02944 3 12 3C16.9706 3 21 7.02944 21 12Z"  stroke-width="2" stroke-linecap="round" stroke-linejoin="round"/>
    </symbol>
    <symbol id="icon-bell" viewBox="0 0 22 22">
      <path d="M9.33333 20.0909C10.041 20.6562 10.9755 21 12 21C13.0245 21 13.959 20.6562 14.6667 20.0909M4.50763 17.1818C4.08602 17.1818 3.85054 16.5194 4.10557 16.1514C4.69736 15.2975 5.26855 14.0451 5.26855 12.537L5.29296 10.3517C5.29296 6.29145 8.29581 3 12 3C15.7588 3 18.8058 6.33993 18.8058 10.4599L18.7814 12.537C18.7814 14.0555 19.3329 15.3147 19.9006 16.169C20.1458 16.5379 19.9097 17.1818 19.4933 17.1818H4.50763Z" stroke-width="2" stroke-linecap="round" stroke-linejoin="round"/>
    </symbol>
    <symbol id="icon-filter" viewBox="0 0 24 24">
      <path d="M6.46154 12H17.5385M4 7H20M10.1538 17H13.8462" stroke-width="2" stroke-linecap="round" stroke-linejoin="round"/>
    </symbol>
    <symbol id="icon-Logo-boardify" viewBox="0 0 512 512">
      <path fill="#E5E5E5"
        d="M240.294,308.285l-36.58-36.58c-1.617-1.617-3.81-2.525-6.097-2.525c-2.287,0-4.48,0.909-6.097,2.525 L20.811,442.413c-0.946,0.947-1.66,2.101-2.083,3.37L0.437,500.654c-2.201,6.602,4.288,13.114,10.906,10.907l54.871-18.291 c1.27-0.425,2.424-1.137,3.37-2.083l170.709-170.709C243.662,317.111,243.662,311.653,240.294,308.285z" />
      <path fill="#CCCCCC"
        d="M240.294,320.479c3.368-3.368,3.368-8.826,0-12.194l-36.58-36.58 c-1.617-1.617-3.81-2.525-6.097-2.525c-2.287,0-4.48,0.909-6.097,2.525l-26.161,26.161l48.774,48.774L240.294,320.479z" />
      <path fill="#27E175"
        d="M468.888,158.879L353.119,43.111c-3.367-3.366-8.826-3.366-12.193,0L176.314,207.722 c-3.368,3.368-3.368,8.826,0,12.194l115.769,115.769c1.617,1.617,3.81,2.525,6.097,2.525c2.287,0,4.48-0.909,6.097-2.525 l164.612-164.612c1.617-1.618,2.525-3.81,2.525-6.097C471.414,162.689,470.506,160.497,468.888,158.879z" />
      <path fill="#3eb15d"
        d="M336.291,317.017c-10.295-32.976-28.732-63.403-53.319-87.99 c-24.587-24.587-55.012-43.024-87.99-53.319c-31.906-9.962-66.249-12.372-99.316-6.979c-6.794,1.109-9.585,9.729-4.708,14.607 l237.704,237.704c4.88,4.878,13.499,2.078,14.606-4.709C348.665,383.266,346.251,348.924,336.291,317.017z" />
      <path fill="#3eb15d"
        d="M499.373,128.395L383.603,12.627C375.461,4.485,364.635,0,353.119,0 c-11.515,0-22.341,4.485-30.484,12.627c-8.142,8.143-12.627,18.968-12.627,30.484s4.485,22.341,12.627,30.484l115.769,115.769 c8.143,8.143,18.969,12.627,30.485,12.627c11.516,0,22.341-4.485,30.483-12.627S512,170.395,512,158.88 S507.515,136.539,499.373,128.395z" />
    </symbol>
    <symbol id="icon-cap" viewBox="0 0 24 24">
      <path
        d="M5.43074 11.9682L11.3648 15.5045C11.6802 15.6925 12.0732 15.6925 12.3886 15.5045L21.9726 9.79303C22.298 9.59913 22.298 9.12791 21.9726 8.93401L12.3886 3.22254C12.0732 3.03457 11.6802 3.03457 11.3648 3.22254L1.7808 8.934C1.45542 9.12791 1.45542 9.59913 1.7808 9.79303L5.43074 11.9682ZM5.43074 11.9682L5.43074 18.2116C5.43074 18.5536 5.6056 18.872 5.89429 19.0555L10.8423 22.2007C11.477 22.6042 12.2845 22.6175 12.9321 22.235L18.3241 19.0511C18.6287 18.8712 18.8157 18.5438 18.8157 18.19L18.8157 11.9682"
        stroke-width="2" />
    </symbol>
    <symbol id="icon-chat" viewBox="0 0 24 24">
      <path
        d="M7.1999 7.20002H15.5999M7.1999 12H11.9999M11.6869 16.5913L6.67816 21.6V16.5913H4.7999C3.47442 16.5913 2.3999 15.5168 2.3999 14.1913V4.80003C2.3999 3.47454 3.47442 2.40002 4.7999 2.40002H19.1999C20.5254 2.40002 21.5999 3.47454 21.5999 4.80002V14.1913C21.5999 15.5168 20.5254 16.5913 19.1999 16.5913H11.6869Z"
        stroke-width="2" stroke-linecap="round" stroke-linejoin="round" />
    </symbol>
    <symbol id="icon-laptop" viewBox="0 0 24 24">
      <path
        d="M20.3999 15.6002V6.23096C20.3999 5.1094 19.4597 4.2002 18.2999 4.2002H5.6999C4.5401 4.2002 3.5999 5.1094 3.5999 6.23096V15.6002M20.3999 15.6002C21.0626 15.6002 21.5999 16.1375 21.5999 16.8002V18.6002C21.5999 19.2629 21.0626 19.8002 20.3999 19.8002H3.5999C2.93716 19.8002 2.3999 19.2629 2.3999 18.6002V16.8002C2.3999 16.1375 2.93716 15.6002 3.5999 15.6002M20.3999 15.6002H16.1999L14.3999 16.8002H9.8999L7.7999 15.6002H3.5999"
        stroke-width="2" stroke-linejoin="round" />
    </symbol>
    <symbol id="icon-heart" viewBox="0 0 24 24">
      <path fill-rule="evenodd" clip-rule="evenodd"
        d="M3.8065 6.20659C4.70663 5.30673 5.92731 4.80122 7.2001 4.80122C8.47288 4.80122 9.69356 5.30673 10.5937 6.20659L12.0001 7.61179L13.4065 6.20659C13.8493 5.74815 14.3789 5.38247 14.9646 5.13091C15.5502 4.87934 16.18 4.74693 16.8174 4.74139C17.4547 4.73585 18.0868 4.8573 18.6767 5.09865C19.2666 5.34 19.8025 5.69641 20.2532 6.1471C20.7039 6.59778 21.0603 7.13371 21.3016 7.72361C21.543 8.31352 21.6644 8.94558 21.6589 9.58292C21.6534 10.2203 21.5209 10.8501 21.2694 11.4357C21.0178 12.0214 20.6521 12.551 20.1937 12.9938L12.0001 21.1886L3.8065 12.9938C2.90664 12.0937 2.40112 10.873 2.40112 9.60019C2.40112 8.32741 2.90664 7.10673 3.8065 6.20659V6.20659Z"
        stroke-width="2" stroke-linejoin="round" />
    </symbol>
    <symbol id="icon-bag" viewBox="0 0 24 24">
      <path
        d="M5.3999 9.62394L10.2307 4.35394C11.1819 3.31626 12.8179 3.31626 13.7691 4.35394L18.5999 9.62394M21.1974 10.9209L18.4654 19.7209C18.3355 20.1393 17.9484 20.4244 17.5103 20.4244H6.55548C6.1196 20.4244 5.73394 20.1421 5.60223 19.7266L2.81268 10.9266C2.60831 10.2819 3.08958 9.62442 3.76594 9.62442H20.2424C20.9162 9.62442 21.3972 10.2774 21.1974 10.9209Z"
        stroke-width="2" stroke-linecap="round" stroke-linejoin="round" />
    </symbol>
    <symbol id="icon-tv" viewBox="0 0 24 24">
      <path
        d="M8.625 20L12 16.5714L15.375 20M5.25 16.5714H18.75C19.9926 16.5714 21 15.5481 21 14.2857V6.28571C21 5.02335 19.9926 4 18.75 4H5.25C4.00736 4 3 5.02335 3 6.28571V14.2857C3 15.5481 4.00736 16.5714 5.25 16.5714Z"
        stroke-width="2" stroke-linecap="round" stroke-linejoin="round" />
    </symbol>
    <symbol id="icon-beach" viewBox="0 0 24 24">
      <path
        d="M12.8727 12.6751L10.4496 16.872M17.2672 3.91272C15.2148 5.16496 11.0639 8.44034 10.8788 11.5239M18.2641 4.48827C18.2513 6.91803 17.5675 12.1952 14.935 13.8658M1.80005 19.1897L4.3335 18.0751C5.88155 17.3941 7.58722 17.1525 9.26352 17.3767L9.3411 17.3871C11.0432 17.6148 12.6477 18.3138 13.9735 19.4053L16 21.0736M6.66626 9.09183L19.0792 16.2584C19.7812 16.6638 20.6789 16.4232 21.0843 15.7211C23.3812 11.7428 22.0181 6.65567 18.0397 4.35876L17.4914 4.04216C13.513 1.74525 8.4259 3.10834 6.12899 7.0867C5.72365 7.78877 5.9642 8.68649 6.66626 9.09183Z"
        stroke-width="2" stroke-linecap="round" stroke-linejoin="round" />
    </symbol>
    <symbol id="icon-Project" viewBox="0 0 32 32">
      <path stroke-linejoin="miter" stroke-linecap="butt" stroke-miterlimit="4"
        stroke-width="2.6667"
        d="M4.396 6.978c0.301-1.281 1.301-2.282 2.582-2.582v0c1.11-0.26 2.266-0.26 3.377 0v0c1.281 0.301 2.282 1.301 2.582 2.582v0c0.26 1.11 0.26 2.266 0 3.377v0c-0.301 1.281-1.301 2.282-2.582 2.582v0c-1.11 0.26-2.266 0.26-3.377 0v0c-1.281-0.301-2.282-1.301-2.582-2.582v0c-0.26-1.11-0.26-2.266 0-3.377v0z">
      </path>
      <path stroke-linejoin="miter" stroke-linecap="butt" stroke-miterlimit="4"
        stroke-width="2.6667"
        d="M4.396 21.645c0.301-1.281 1.301-2.282 2.582-2.582v0c1.11-0.261 2.266-0.261 3.377 0v0c1.281 0.3 2.282 1.301 2.582 2.582v0c0.26 1.111 0.26 2.266 0 3.377v0c-0.301 1.281-1.301 2.282-2.582 2.582v0c-1.11 0.261-2.266 0.261-3.377 0v0c-1.281-0.3-2.282-1.301-2.582-2.582v0c-0.26-1.111-0.26-2.266 0-3.377v0z">
      </path>
      <path stroke-linejoin="miter" stroke-linecap="butt" stroke-miterlimit="4"
        stroke-width="2.6667"
        d="M19.063 6.978c0.3-1.281 1.301-2.282 2.582-2.582v0c1.111-0.26 2.266-0.26 3.377 0v0c1.281 0.301 2.282 1.301 2.582 2.582v0c0.261 1.11 0.261 2.266 0 3.377v0c-0.3 1.281-1.301 2.282-2.582 2.582v0c-1.111 0.26-2.266 0.26-3.377 0v0c-1.281-0.301-2.282-1.301-2.582-2.582v0c-0.261-1.11-0.261-2.266 0-3.377v0z">
      </path>
      <path stroke-linejoin="miter" stroke-linecap="butt" stroke-miterlimit="4"
        stroke-width="2.6667"
        d="M19.063 21.645c0.3-1.281 1.301-2.282 2.582-2.582v0c1.111-0.261 2.266-0.261 3.377 0v0c1.281 0.3 2.282 1.301 2.582 2.582v0c0.261 1.111 0.261 2.266 0 3.377v0c-0.3 1.281-1.301 2.282-2.582 2.582v0c-1.111 0.261-2.266 0.261-3.377 0v0c-1.281-0.3-2.282-1.301-2.582-2.582v0c-0.261-1.111-0.261-2.266 0-3.377v0z">
      </path>
    </symbol>
    <symbol id="icon-arrow-down" viewBox="0 0 30 32">
      <path stroke-linejoin="round" stroke-linecap="round" stroke-miterlimit="4"
        stroke-width="2.8235"
        d="M7.529 12.235l7.529 7.529 7.529-7.529"></path>
    </symbol>
    <symbol id="icon-x-close" viewBox="0 0 32 32">
      <path stroke-linejoin="round" stroke-linecap="round" stroke-miterlimit="4"
        stroke-width="2.6667" d="M24 8l-16 16">
      </path>
      <path stroke-linejoin="round" stroke-linecap="round" stroke-miterlimit="4"
        stroke-width="2.6667" d="M8 8l16 16">
      </path>
    </symbol>
    <symbol id="icon-x-close-1" viewBox="0 0 32 32">
      <path fill="none" stroke="#fff" style="stroke: var(--color1, #fff)" stroke-linejoin="round"
        stroke-linecap="round"
        stroke-miterlimit="4" stroke-width="2.6667" d="M24 8l-16 16"></path>
      <path fill="none" stroke="#fff" style="stroke: var(--color1, #fff)" stroke-linejoin="round"
        stroke-linecap="round"
        stroke-miterlimit="4" stroke-width="2.6667" d="M8 8l16 16"></path>
    </symbol>
    <symbol id="icon-logout" viewBox="0 0 24 24">
      <path d="M14.6471 7.8001V5.7001C14.6471 5.14314 14.424 4.609 14.0268 4.21517C13.6297 3.82135 13.091 3.6001 12.5294 3.6001H5.11765C4.55601 3.6001 4.01738 3.82135 3.62024 4.21517C3.22311 4.609 3 5.14314 3 5.7001V18.3001C3 18.8571 3.22311 19.3912 3.62024 19.785C4.01738 20.1788 4.55601 20.4001 5.11765 20.4001H12.5294C13.091 20.4001 13.6297 20.1788 14.0268 19.785C14.424 19.3912 14.6471 18.8571 14.6471 18.3001V16.2001M8.29412 12.0001H21M21 12.0001L17.8235 8.8501M21 12.0001L17.8235 15.1501" stroke-width="2" stroke-linecap="round" stroke-linejoin="round"/>
    </symbol>
    <symbol id="icon-help" viewBox="0 0 24 24">
      <path d="M11.999 16.5V16.5396M9.75 9.22999C9.75 7.96388 10.7574 6.9375 12 6.9375C13.2426 6.9375 14.25 7.96388 14.25 9.22999C14.25 10.4961 13.2426 11.5225 12 11.5225C12 11.5225 11.999 12.2067 11.999 13.0508M21 12C21 16.9706 16.9706 21 12 21C7.02944 21 3 16.9706 3 12C3 7.02944 7.02944 3 12 3C16.9706 3 21 7.02944 21 12Z" stroke-width="2" stroke-linecap="round" stroke-linejoin="round"/>
    </symbol>
    <symbol id="icon-eye" viewBox="0 0 24 24">
      <path d="M6.60005 9.05591V7.86131C6.60005 4.83586 9.00862 2.3999 12 2.3999C14.9915 2.3999 17.4001 4.83586 17.4001 7.86131V9.65325M12 15.6854V13.2854M19.2001 14.432C19.2001 18.3908 15.9765 21.6001 12 21.6001C8.0236 21.6001 4.80005 18.3908 4.80005 14.432C4.80005 10.4731 8.0236 7.26388 12 7.26388C15.9765 7.26388 19.2001 10.4731 19.2001 14.432Z" stroke-width="2" stroke-linecap="round"/>
    </symbol>
    <symbol id="icon-burger" viewBox="0 0 32 32" fill="none">
      <path d="M4 16H28" stroke-width="2.5" stroke-linecap="round" stroke-linejoin="round" />
      <path d="M4 8H28" stroke-width="2.5" stroke-linecap="round" stroke-linejoin="round" />
      <path d="M4 24H28" stroke-width="2.5" stroke-linecap="round" stroke-linejoin="round" />
    </symbol>
    <symbol id="icon-train" viewBox="0 0 24 24" fill="none">
      <path
        d="M6.0001 20.4L4.2001 22.7999M20.3186 22.7796L18.4663 20.4198M8.40057 16.8721V16.8M15.6006 16.8721V16.8M4.8001 13.8H19.8001M12.0001 4.79995V13.2M9.0001 1.19995H15.0001M6.5648 20.4H17.4354C19.0728 20.4 20.4001 19.0726 20.4001 17.4352V7.76466C20.4001 6.1273 19.0728 4.79995 17.4354 4.79995H6.5648C4.92744 4.79995 3.6001 6.1273 3.6001 7.76466V17.4352C3.6001 19.0726 4.92744 20.4 6.5648 20.4Z"
        stroke-width="2" stroke-linecap="round" />
    </symbol>
    <symbol id="icon-empty-bgc" viewBox="0 0 24 24" fill="none">
      <path
        d="M4.7999 21.6001H19.1999C20.5254 21.6001 21.5999 20.4691 21.5999 19.0738V4.92646C21.5999 3.53122 20.5254 2.40015 19.1999 2.40015H4.7999C3.47442 2.40015 2.3999 3.53121 2.3999 4.92646V19.0738C2.3999 20.4691 3.47442 21.6001 4.7999 21.6001Z"
        stroke-width="2" stroke-linecap="round" stroke-linejoin="round" />
      <path d="M5.99991 15.6H17.9999L13.9999 8.60003L10.9999 13.1L8.99991 11.1L5.99991 15.6Z"
        stroke-width="2" stroke-linecap="round" stroke-linejoin="round" />
    </symbol>
  </defs>
</svg>